<?xml version="1.0" encoding="UTF-8"?>
<svg height="1em" viewBox="0 0 113.2 60">
<g id="SvgjsG2480" transform="translate(0 3)" fill="currentColor">
<path d="M11.32 23.96 c0 -0.93332 0.32668 -1.7266 0.98 -2.38 s1.4333 -0.98 2.34 -0.98 c0.93332 0 1.7266 0.32668 2.38 0.98 s0.98 1.4466 0.98 2.38 s-0.32668 1.72 -0.98 2.36 s-1.4466 0.96 -2.38 0.96 c-0.90668 0 -1.6867 -0.32 -2.34 -0.96 s-0.98 -1.4267 -0.98 -2.36 z M6.96 10.04 l0 14.12 l0 5.36 l0.02 4.84 l0.02 3.72 l0 1.92 l-7 0 l0 -22.32 c0 -1.0133 -0.0066796 -1.9866 -0.02 -2.92 s-0.02 -1.7466 -0.02 -2.44 c-0.02668 -0.82668 -0.04 -1.5867 -0.04 -2.28 l7.04 0 z M21.76 10.120000000000001 l0.3 -0.019961 l0.82 -0.04 l1.14 -0.02 l1.3 0 l3.56 0 c-0.02668 5.2 -0.04 9.9068 -0.04 14.12 c0 1.8133 -0.0066796 3.6 -0.02 5.36 s-0.02 3.3733 -0.02 4.84 l0 3.72 l0 1.92 l-7 0 l0 -22 c0 -1.0133 -0.0066796 -1.9933 -0.02 -2.94 s-0.02 -1.7934 -0.02 -2.54 l0 -2.4 z M55.839999999999996 40 l-7.12 0 l0 -21.08 l7.12 0 l0 21.08 z M41.72 39.2 c-0.93332 -0.24 -1.82 -0.66 -2.66 -1.26 s-1.58 -1.3267 -2.22 -2.18 s-1.1467 -1.8133 -1.52 -2.88 s-0.56 -2.1867 -0.56 -3.36 l0 -10.64 l7.32 0 l0 11.2 l0 9.2 c-0.08 0 -0.2 -0.02668 -0.36 -0.08 z M75.72 19.36 c1.1467 0 2.2334 0.22672 3.26 0.68004 s1.92 1.0666 2.68 1.84 s1.36 1.68 1.8 2.72 s0.66 2.16 0.66 3.36 s-0.22 2.32 -0.66 3.36 s-1.04 1.9533 -1.8 2.74 s-1.6533 1.4067 -2.68 1.86 s-2.1134 0.68 -3.26 0.68 l-1.24 0 c0.4 -0.34668 0.76 -0.80668 1.08 -1.38 s0.6 -1.2333 0.84 -1.98 s0.42668 -1.5667 0.56 -2.46 s0.2 -1.8333 0.2 -2.82 c0 -0.96 -0.06668 -1.8867 -0.2 -2.78 s-0.32 -1.7133 -0.56 -2.46 s-0.52 -1.4067 -0.84 -1.98 s-0.68 -1.0333 -1.08 -1.38 l1.24 0 z M68.72 36.6 c-1.1733 0 -2.2666 -0.22676 -3.28 -0.68008 s-1.9 -1.0733 -2.66 -1.86 s-1.36 -1.7 -1.8 -2.74 s-0.66 -2.16 -0.66 -3.36 s0.22 -2.32 0.66 -3.36 s1.04 -1.9467 1.8 -2.72 s1.6467 -1.3866 2.66 -1.84 s2.1066 -0.68 3.28 -0.68 l1.4 0 c-0.77332 0.69332 -1.4066 1.8133 -1.9 3.36 s-0.74 3.2934 -0.74 5.24 c0 1.9733 0.24668 3.7333 0.74 5.28 s1.1266 2.6667 1.9 3.36 l-1.4 0 z M77.32 41.44 c1.28 0.29332 2.4467 0.75992 3.5 1.3999 s1.9733 1.4 2.76 2.28 s1.42 1.8733 1.9 2.98 s0.77332 2.2734 0.88 3.5 l-14.76 -3.4 c-1.28 -0.29332 -2.4533 -0.76 -3.52 -1.4 s-1.9934 -1.4 -2.78 -2.28 s-1.42 -1.8667 -1.9 -2.96 s-0.77332 -2.2666 -0.88 -3.52 l14.76 3.4 l0.04 0 z M63.279999999999994 47 c0.42668 0.88 0.92676 1.6867 1.5001 2.42 s1.1866 1.3933 1.84 1.98 s1.3266 1.1067 2.02 1.56 s1.36 0.85332 2 1.2 c1.52 0.8 3.0933 1.4267 4.72 1.88 l-12.08 0 l0 -9.04 z M87.44 13.760000000000002 c0.50668 0.8 0.64676 1.6532 0.42008 2.5599 s-0.72668 1.6134 -1.5 2.12 c-0.82668 0.50668 -1.7 0.64668 -2.62 0.42 s-1.6333 -0.74 -2.14 -1.54 c-0.37332 -0.58668 -0.76 -1.0067 -1.16 -1.26 s-0.77332 -0.40664 -1.12 -0.45996 c-0.4 -0.08 -0.8 -0.06668 -1.2 0.04 c0.29332 -0.48 0.66664 -0.93332 1.12 -1.36 c0.37332 -0.37332 0.84664 -0.74664 1.42 -1.12 s1.2466 -0.66664 2.02 -0.87996 c2.1867 -0.58668 3.7734 -0.09336 4.76 1.48 z M102.51999999999998 19 c1.36 0 2.6467 0.27324 3.86 0.81992 s2.2733 1.2934 3.18 2.24 s1.62 2.06 2.14 3.34 s0.78 2.6533 0.78 4.12 c0 1.44 -0.26 2.7933 -0.78 4.06 s-1.2333 2.3734 -2.14 3.32 s-1.9667 1.6934 -3.18 2.24 s-2.5 0.82 -3.86 0.82 l-0.64 0 c0.48 -0.42668 0.91332 -0.98668 1.3 -1.68 s0.72 -1.4933 1 -2.4 s0.5 -1.9 0.66 -2.98 s0.24 -2.2067 0.24 -3.38 s-0.08 -2.3066 -0.24 -3.4 s-0.38 -2.0933 -0.66 -3 s-0.61332 -1.7134 -1 -2.42 s-0.82 -1.2734 -1.3 -1.7 l0.64 0 z M96.79999999999998 39.959924 c-1.36 0 -2.6467 -0.27324 -3.86 -0.81992 s-2.2733 -1.2934 -3.18 -2.24 s-1.62 -2.0534 -2.14 -3.32 s-0.78 -2.62 -0.78 -4.06 c0 -1.4667 0.26 -2.84 0.78 -4.12 s1.2333 -2.3933 2.14 -3.34 s1.9667 -1.6934 3.18 -2.24 s2.5 -0.82 3.86 -0.82 l0.64 0 c-0.48 0.42668 -0.91332 0.99336 -1.3 1.7 s-0.72 1.5134 -1 2.42 s-0.5 1.9067 -0.66 3 s-0.24 2.2266 -0.24 3.4 s0.08 2.3 0.24 3.38 s0.38 2.0733 0.66 2.98 s0.61332 1.7067 1 2.4 s0.82 1.2533 1.3 1.68 l-0.64 0 z"></path></g>
</svg>
