<?xml version="1.0" encoding="UTF-8"?>
<svg viewBox="0 10 29 30">
<g id="SvgjsG2480" fill="#384259">
  <path d="M 11.32 23.96 C 11.32 23.027 11.647 22.233 12.3 21.58 C 12.953 20.927 13.733 20.6 14.64 20.6 C 15.573 20.6 16.367 20.927 17.02 21.58 C 17.673 22.233 18 23.027 18 23.96 C 18 24.893 17.673 25.68 17.02 26.32 C 16.367 26.96 15.573 27.28 14.64 27.28 C 13.733 27.28 12.953 26.96 12.3 26.32 C 11.647 25.68 11.32 24.893 11.32 23.96 Z M 6.96 10.04 L 6.96 24.16 L 6.96 29.52 L 6.98 34.36 L 7 38.08 L 7 40 L 0 40 L 0 17.68 C 0 16.667 -0.007 15.693 -0.02 14.76 C -0.033 13.827 -0.04 13.013 -0.04 12.32 C -0.067 11.493 -0.08 10.733 -0.08 10.04 L 6.96 10.04 Z M 21.76 10.12 L 22.06 10.1 L 22.88 10.06 L 24.02 10.04 L 25.32 10.04 L 28.88 10.04 C 28.853 15.24 28.84 19.947 28.84 24.16 C 28.84 25.973 28.833 27.76 28.82 29.52 C 28.807 31.28 28.8 32.893 28.8 34.36 L 28.8 38.08 L 28.8 40 L 21.8 40 L 21.8 18 C 21.8 16.987 21.793 16.007 21.78 15.06 C 21.767 14.113 21.76 13.267 21.76 12.52 L 21.76 10.12 Z"></path>
</g>
</svg>